<?xml version="1.0" encoding="utf-8"?>
<!-- Generator: Adobe Illustrator 19.0.0, SVG Export Plug-In . SVG Version: 6.00 Build 0)  -->
<svg version="1.1" id="图层_1" xmlns="http://www.w3.org/2000/svg" xmlns:xlink="http://www.w3.org/1999/xlink" x="0px" y="0px"
	 viewBox="0 0 393.7 83.6" style="enable-background:new 0 0 393.7 83.6;" xml:space="preserve">
<style type="text/css">
	.st0{fill:#D1D2D5;}
</style>
<path id="XMLID_16_" class="st0" d="M29,33.8l-4.7,33.2c-0.1,1,0.1,1.9,0.7,2.6c0.6,0.7,1.4,1,2.3,1H54l-0.1,1.1
	c-0.2,1.4-0.9,2.5-1.9,3.4c-1,0.9-2.2,1.3-3.5,1.3H15.9c-2.3,0-4-0.8-5.4-2.3c-1.3-1.6-1.8-3.5-1.5-5.7l5.9-41.6H30l-0.9,5.9
	L29,33.8z M32,16l-3.8,8.3H13.1l5.2-11.4c0.6-1.4,1.5-2.5,2.7-3.3c1.2-0.9,2.5-1.3,4-1.3h28.8c1.4,0,2.6,0.4,3.5,1.3
	c0.9,0.8,1.5,1.9,1.8,3.3l2,11.4H46L44.6,16c-0.2-1.3-1-2-2.3-2h-7.5C33.5,14,32.6,14.7,32,16z M29,33.8l0.1-1.2L29,33.8z
	 M31.4,32.7l0.9-5.9h27.3l-4,28.8c-0.3,2.3-1.3,4.2-3.1,5.7c-1.8,1.6-3.8,2.3-6,2.3H29.6l0.8-5.9h6.2c1,0,1.9-0.3,2.6-1
	c0.8-0.7,1.2-1.5,1.4-2.4l3-21.7H31.4z M73.7,60.6c-0.3,1.8-1.1,3.2-2.3,4.3c-1.3,1.1-2.8,1.7-4.5,1.7h-7.1L67,15
	c0.2-1.8,1-3.2,2.3-4.3C70.7,9.5,72.2,9,74,9h7L73.7,60.6z M92.1,7.6h9.9l-8.5,60.8c-0.3,2.2-1.4,4.1-3.2,5.7
	c-1.8,1.6-3.7,2.3-5.9,2.3H63.5l0.3-1.9c0.1-1.1,0.6-2.1,1.5-2.8c0.9-0.7,1.8-1.1,3-1.1h7.1c0.8,0,1.4-0.3,2-0.8
	c0.6-0.5,0.9-1.2,1-1.9l7.8-55.3c0.2-1.5,0.9-2.8,2-3.7C89.3,8.1,90.6,7.6,92.1,7.6z"/>
<path id="XMLID_23_" class="st0" d="M172.7,71.4l-63,4.1c-1.8,0.1-3.2-0.5-4.1-1.8c-0.5-0.7-0.9-1.5-1-2.3c-0.1-0.8,0-1.7,0.4-2.6
	L121,36h-13.4l0.4-2.9c0.1-1.1,0.6-2,1.4-2.6c0.8-0.7,1.7-1,2.7-1h83.3l-0.4,3c-0.1,1-0.6,1.9-1.4,2.6c-0.8,0.7-1.7,1-2.7,1h-54.7
	L121,66.6c-0.2,0.4-0.2,0.8,0.1,1.2c0.2,0.4,0.7,0.5,1.3,0.4l49.8-2.8l-2.4-21.4h4.6c2.8,0,5.3,1,7.4,2.9c2.1,1.9,3.3,4.4,3.7,7.4
	l2.2,22.2h-11.3c-0.9,0-1.7-0.3-2.4-1c-0.7-0.6-1.1-1.4-1.2-2.4L172.7,71.4z M196.8,7.4l-0.4,3c-0.2,1-0.7,1.9-1.4,2.6
	c-0.8,0.7-1.7,1-2.7,1h-80.1l0.4-3c0.2-1.1,0.7-1.9,1.4-2.6c0.8-0.7,1.6-1,2.6-1H196.8z"/>
<path id="XMLID_26_" class="st0" d="M232.4,54l1.2-8.8h-30.2l0.5-3.7c0.1-0.9,0.6-1.7,1.2-2.3c0.7-0.6,1.5-1,2.4-1h27l0.8-6.1h-31
	l0.4-3.2c0.1-1.1,0.6-2,1.4-2.8c0.8-0.7,1.7-1.1,2.8-1.1h78.3c-0.3,2.1-1.2,3.7-2.6,5c-1.4,1.3-3,1.9-5,1.9h-30l-0.8,6.1h35.8
	c-0.3,2.1-1.1,3.7-2.6,5.1c-1.4,1.3-3.1,2-5,2H248l-1.2,8.8h37.1l-0.3,1.9c-0.2,1.5-0.8,2.7-1.9,3.7c-1.1,1-2.3,1.5-3.7,1.5h-32.3
	l-0.9,6.9c-0.1,0.8,0,1.5,0.4,2c0.4,0.5,1,0.8,1.9,0.8h29.2c1.4,0,2.6,0.6,3.5,1.7c0.9,1.1,1.3,2.4,1.1,3.9h-43.4
	c-1.1,0-2.1-0.2-3-0.5c-0.9-0.4-1.7-1-2.3-1.7c-0.7-0.7-1.2-1.6-1.5-2.6c-0.3-1-0.4-2.2-0.2-3.5l1-6.9h-31.6l0.5-3.7
	c0.1-1,0.6-1.8,1.2-2.4c0.7-0.6,1.4-0.9,2.3-0.9H232.4z M220,15.1l-1.1,2.3c-1.6,2.7-3.6,4.1-6,4.1h-11.3l6.3-12.7
	c0.6-1,1.3-1.5,2.2-1.5H224l-1,2h24.9l-0.4,3.2c-0.1,0.7-0.5,1.3-1,1.8c-0.5,0.5-1.1,0.7-1.8,0.7h-4.1l1.1,6.5h-10.3
	c-2.3,0-3.9-1.4-4.6-4.1l-0.4-2.3H220z M264.8,15.1l-1,2.1c-1.7,2.9-3.8,4.3-6.4,4.3h-11.1l6.2-12.5c0.6-1.1,1.5-1.7,2.5-1.7h13.7
	l-1,2h24.8l-0.4,2.6c-0.1,0.9-0.5,1.7-1.2,2.3c-0.6,0.6-1.4,0.9-2.2,0.9h-2.4l1.2,6.5h-10.5c-2,0-3.2-1.1-3.8-3.4l-0.6-3.1H264.8z"
	/>
<path id="XMLID_30_" class="st0" d="M318.6,23.5l-6.3,43.7c-0.7,5.2-5.1,9.1-10.3,9.4l0,0c-1.8,0.1-3.3-0.4-4.3-1.5
	c-1.1-1.1-1.6-2.5-1.3-4.3l5.7-39h-3.7c-0.9,0-1.7-0.3-2.3-1c-0.5-0.6-0.8-1.4-0.7-2.3l0.7-5.1H318.6z M315.3,7.4
	c1.5,0,2.7,0.5,3.7,1.4c1,0.9,1.5,2.1,1.5,3.5V20h-13c-0.7,0-1.2-0.2-1.6-0.6c-0.4-0.4-0.7-1-0.7-1.7V7.4H315.3z M327.7,35.4h15.4
	l-4,29.5c-0.1,1,0.1,1.9,0.7,2.6c0.6,0.7,1.4,1,2.5,1h29.9c2.3,0,4.2,0.8,5.6,2.4c0.7,0.7,1.2,1.5,1.4,2.3c0.3,0.8,0.4,1.7,0.3,2.9
	l-0.1,0.4h-49.4c-2.2,0-4-0.8-5.5-2.3c-1.4-1.6-1.9-3.4-1.5-5.6L327.7,35.4z M331.2,7.8H388l-3.9,26.8c-0.3,2.2-1.3,4.1-3.2,5.7
	c-1.9,1.6-3.9,2.3-6.2,2.3h-30.5l1-7.3h19.7c1,0,1.9-0.3,2.7-1c0.8-0.7,1.3-1.5,1.5-2.5l2.2-16.6h-36.2c-1.3,0-2.4-0.5-3.2-1.4
	c-0.8-0.9-1.2-2.1-1-3.4L331.2,7.8z"/>
</svg>
